HIERARCHY
ROOT Hips
{
     OFFSET 1.88212 96.90440 -13.34250
     CHANNELS 6 Xposition Yposition Zposition Zrotation Xrotation Yrotation
     JOINT Spine
     {
          OFFSET 0.00000 11.89050 0.00000
          CHANNELS 3 Zrotation Xrotation Yrotation
          JOINT Spine1
          {
               OFFSET -0.00000 25.65740 0.12766
               CHANNELS 3 Zrotation Xrotation Yrotation
               JOINT HEad
               {
                    OFFSET 0.00000 8.73416 0.01134
                    CHANNELS 3 Zrotation Xrotation Yrotation
                    End Site
                    {
                         OFFSET -0.29000 12.77420 2.51395
                    }
               }
               JOINT LeftShoulder1
               {
                    OFFSET 8.99000 -0.36225 -0.22000
                    CHANNELS 3 Zrotation Xrotation Yrotation
                    JOINT LeftArm
                    {
                         OFFSET 10.28270 -0.00338 0.32212
                         CHANNELS 3 Zrotation Xrotation Yrotation
                         JOINT LeftForeArm
                         {
                              OFFSET 32.76690 0.09914 -1.42434
                              CHANNELS 3 Zrotation Xrotation Yrotation
                              JOINT LeftHand
                              {
                                   OFFSET 27.56430 0.08536 1.02216
                                   CHANNELS 3 Zrotation Xrotation Yrotation
                                   End Site
                                   {
                                        OFFSET 16.74430 -0.60000 1.50291
                                   }
                              }
                         }
                    }
               }
               JOINT RightShoulder
               {
                    OFFSET -8.99000 -0.36225 -0.22000
                    CHANNELS 3 Zrotation Xrotation Yrotation
                    JOINT RightArm
                    {
                         OFFSET -10.28270 -0.00338 0.32212
                         CHANNELS 3 Zrotation Xrotation Yrotation
                         JOINT RightForeArm
                         {
                              OFFSET -32.89710 0.09914 -1.42434
                              CHANNELS 3 Zrotation Xrotation Yrotation
                              JOINT RightHand
                              {
                                   OFFSET -27.49210 0.08536 1.02216
                                   CHANNELS 3 Zrotation Xrotation Yrotation
                                   End Site
                                   {
                                        OFFSET -16.63120 -0.60000 1.50291
                                   }
                              }
                         }
                    }
               }
          }
     }
     JOINT LeftUpLeg
     {
          OFFSET 8.94580 -8.66707 0.10165
          CHANNELS 3 Zrotation Xrotation Yrotation
          JOINT LeftLeg
          {
               OFFSET 0.00000 -44.42270 1.37270
               CHANNELS 3 Zrotation Xrotation Yrotation
               JOINT LeftFoot
               {
                    OFFSET -0.25355 -42.09240 -1.46059
                    CHANNELS 3 Zrotation Xrotation Yrotation
                    JOINT LeftToes
                    {
                         OFFSET -0.04000 -4.41509 8.49910
                         CHANNELS 3 Zrotation Xrotation Yrotation
                         End Site
                         {
                              OFFSET 0.08000 -0.04745 9.77979
                         }
                    }
               }
          }
     }
     JOINT RightUpLeg
     {
          OFFSET -8.94580 -8.66707 0.10165
          CHANNELS 3 Zrotation Xrotation Yrotation
          JOINT RightLeg
          {
               OFFSET 0.00000 -44.42270 1.37270
               CHANNELS 3 Zrotation Xrotation Yrotation
               JOINT RightFoot
               {
                    OFFSET 0.25355 -42.09240 -1.46059
                    CHANNELS 3 Zrotation Xrotation Yrotation
                    JOINT RightToes
                    {
                         OFFSET 0.04000 -4.41509 8.49910
                         CHANNELS 3 Zrotation Xrotation Yrotation
                         End Site
                         {
                              OFFSET -0.08000 -0.13745 9.77979
                         }
                    }
               }
          }
     }
}
MOTION
Frames: 19
Frame Time: 0.01667
56.83042 92.26365 -25.55933 5.30698 10.86992 149.92307 -8.97813 25.53692 -8.86227 -0.05011 0.06016 0.09534 -33.93826 25.06543 28.63524 -7.35083 6.75429 14.21018 -151.28580 -67.38760 -126.94785 -24.64552 62.11997 -92.88549 14.23286 2.19851 -8.44464 11.68073 12.40359 13.37740 71.60457 7.93146 75.70708 2.93451 19.71365 88.42679 17.98678 13.21450 13.23081 11.63580 -5.87615 -22.82766 -19.77968 6.36630 64.18822 19.53768 0.02401 -0.01035 -12.55272 -6.18053 -46.17492 -31.20402 23.69470 8.51422 33.61280 -7.64875 -30.36457 -22.99942 0.01328 -0.02164 8.59508 -19.56410 20.02238 
55.83109 92.38216 -26.36242 5.02400 11.52126 150.78793 -9.46247 26.35014 -7.03285 -0.00797 0.00458 -0.00957 -33.63419 27.70487 26.21557 -6.69722 6.91858 11.45592 -150.92992 -67.64749 -126.63494 -24.68438 62.02197 -92.66050 14.38827 3.01089 -8.17277 12.54960 11.65368 10.63526 72.39197 7.34215 75.27760 2.41368 20.40186 89.47463 17.60382 12.94092 13.00431 10.50089 -4.73957 -28.74508 -19.72330 3.08240 71.21482 18.63660 0.01933 -0.00570 -10.75551 -7.27829 -48.75800 -32.39591 23.66871 8.40502 33.54608 -7.36872 -31.01986 -20.75569 0.00663 -0.01533 7.00395 -19.13737 20.20615 
54.84143 92.47810 -27.04396 4.82443 12.03573 151.47098 -9.92128 26.62340 -4.97942 -0.00379 0.00612 -0.01947 -31.39376 29.50677 23.42256 -5.95831 7.48278 8.60731 -150.16536 -67.74020 -125.89133 -24.41592 61.90533 -92.61095 14.53639 3.55924 -8.14877 13.45507 11.25207 7.70562 73.27655 6.67922 74.79819 1.92081 21.19374 90.70455 17.45948 12.74356 12.71827 9.87208 -3.65022 -32.64522 -19.60525 0.22260 76.19446 17.76779 0.01567 -0.00461 -8.95660 -8.39270 -51.07780 -33.35628 22.51829 8.92604 33.54578 -5.86059 -32.52304 -18.26832 -0.00133 -0.00381 5.33608 -19.23429 20.15741 
53.88020 92.55906 -27.61675 4.70056 12.40535 151.99271 -10.32127 26.82089 -3.05886 -0.00256 0.00653 -0.02045 -27.69587 29.81656 20.46844 -5.16592 7.97320 6.04945 -149.10233 -67.68710 -124.83355 -23.96671 61.76983 -92.67358 14.69549 4.21972 -7.90865 14.30638 10.87432 5.10982 74.19765 5.95106 74.34122 1.44822 21.99441 92.02010 17.22621 12.53862 12.37483 9.57111 -2.70579 -34.74915 -19.59523 -2.12453 79.35259 16.87456 0.01350 -0.00480 -7.12587 -9.55782 -53.12189 -34.01516 21.43503 9.46038 33.54652 -4.00932 -33.74506 -15.63074 -0.00681 0.00742 3.60613 -19.69117 19.92304 
52.98203 92.64219 -28.13977 4.65587 12.64559 152.39635 -10.63664 26.96611 -1.32512 -0.00149 0.00689 -0.02031 -24.24826 29.71832 17.79592 -4.35091 8.37646 3.79939 -147.92323 -67.51620 -123.65915 -23.45081 61.62848 -92.79502 14.84075 4.71734 -7.82110 15.09498 10.52067 2.87680 75.11315 5.17636 73.95357 0.97853 22.75194 93.35005 17.16790 12.39514 12.01650 9.48674 -1.86645 -35.27784 -19.78638 -3.92019 80.85136 15.87173 0.01266 -0.00584 -5.25264 -10.78354 -54.88661 -34.39734 20.09152 9.97223 35.21592 -0.91676 -33.72660 -22.40547 0.20607 -0.02461 9.87863 -21.79430 18.06079 
52.17307 92.73285 -28.64792 4.68794 12.77219 152.70537 -10.85751 27.06733 0.20018 -0.00057 0.00720 -0.01973 -21.11429 29.28999 15.46328 -3.54213 8.69810 1.86438 -146.78114 -67.24761 -122.53462 -22.94646 61.50127 -92.93320 14.99045 5.28182 -7.61084 15.81145 10.20101 1.00165 76.00584 4.38682 73.66383 0.49529 23.43893 94.64795 17.06641 12.24654 11.66419 9.55687 -1.09186 -34.40741 -20.22541 -5.11714 80.83751 14.68538 0.01252 -0.00754 -3.34105 -12.04495 -56.38305 -34.57615 18.52746 10.46435 36.47544 1.71241 -33.98193 -29.08915 0.13172 -0.04224 16.13774 -22.87977 16.53621 
51.46339 92.84179 -29.15453 4.80048 12.80678 152.94366 -10.97363 27.13821 1.50430 0.00015 0.00738 -0.01884 -18.32733 28.61837 13.50024 -2.76640 8.95240 0.25311 -145.76102 -66.89502 -121.55568 -22.49001 61.40369 -93.07972 15.14024 5.74980 -7.49574 16.44728 9.92806 -0.54328 76.87316 3.62234 73.48347 -0.01404 24.05025 95.89502 17.07018 12.12020 11.32437 9.74039 -0.35857 -32.29915 -20.89586 -5.66988 79.46281 13.27879 0.01242 -0.00945 -1.39597 -13.28729 -57.63436 -34.61432 16.66238 10.94424 38.94371 5.35210 -34.27101 -21.67225 -0.07870 0.18120 7.42403 -25.04075 14.15859 
50.85159 92.97749 -29.65252 4.99324 12.76739 153.12248 -10.98586 27.18570 2.59680 0.00072 0.00733 -0.01771 -15.89291 27.78821 11.90856 -2.04734 9.15460 -1.03033 -144.87943 -66.46748 -120.74883 -22.08401 61.34157 -93.24432 15.30310 6.24270 -7.30284 17.00216 9.71056 -1.79598 77.71358 2.91551 73.41077 -0.55147 24.58873 97.08937 17.03687 11.97715 11.00410 10.00456 0.31417 -29.08483 -21.72430 -5.54604 76.89237 11.65737 0.01204 -0.01077 0.58820 -14.43172 -58.66580 -34.57993 14.53898 11.43080 41.79921 9.28629 -33.90095 -29.59726 0.29299 -0.04629 13.60734 -27.52830 11.23263 
50.32003 93.14265 -30.12027 5.25686 12.66511 153.26268 -10.89719 27.21144 3.48288 0.00103 0.00718 -0.01637 -13.79581 26.87284 10.66694 -1.40626 9.31580 -1.99544 -144.11000 -65.97267 -120.09606 -21.70847 61.31253 -93.45039 15.46899 6.65180 -7.15262 17.48221 9.54958 -2.79346 78.52127 2.28260 73.43501 -1.11127 25.06219 98.23645 17.05350 11.84227 10.69297 10.31491 0.91027 -24.88938 -22.58207 -4.74708 73.28328 9.83864 0.01126 -0.01102 2.62041 -15.41012 -59.49710 -34.46838 12.29365 11.91454 43.88324 11.84620 -34.24068 -26.01228 -0.05997 -0.00930 8.50640 -27.95697 9.24430 
49.84407 93.33443 -30.52954 5.57574 12.50476 153.37866 -10.71688 27.21230 4.17772 0.00117 0.00700 -0.01485 -12.01011 25.92962 9.73875 -0.85666 9.44142 -2.66930 -143.41470 -65.41660 -119.56039 -21.33072 61.30824 -93.71941 15.63734 7.04365 -6.93622 17.89407 9.43932 -3.55850 79.28779 1.71550 73.54301 -1.68419 25.47468 99.33954 17.03085 11.70843 10.40311 10.65924 1.34182 -20.95476 -23.29653 -3.69143 69.84444 7.83690 0.01013 -0.01017 4.70356 -16.18604 -60.14585 -34.29590 10.06434 12.39536 45.40287 13.67301 -34.89817 -28.13979 0.03728 -0.00829 9.64299 -28.09900 8.15732 
49.40431 93.54874 -30.86147 5.93063 12.29040 153.48387 -10.45628 27.18633 4.69797 0.00125 0.00685 -0.01324 -10.50738 25.00011 9.08027 -0.39894 9.53236 -3.09188 -142.77286 -64.80421 -119.10867 -20.91862 61.32055 -94.06879 15.79165 7.36173 -6.72879 18.24020 9.37041 -4.10173 80.00803 1.19081 73.72401 -2.26398 25.82721 100.39864 17.02119 11.59851 10.12582 11.03194 1.60619 -17.29920 -23.81780 -2.45249 66.59863 5.67753 0.00862 -0.00847 6.83605 -16.75511 -60.63437 -34.06180 7.95185 12.87131 46.53809 15.07099 -35.69886 -27.34555 0.00754 -0.00527 8.21237 -27.85790 7.69259 
48.99195 93.78000 -31.10873 6.30241 12.02761 153.59180 -10.12513 27.13444 5.05854 0.00137 0.00676 -0.01161 -9.26116 24.11287 8.64718 -0.02314 9.58803 -3.30684 -142.18727 -64.13858 -118.72063 -20.45224 61.34656 -94.50276 15.93372 7.64947 -6.46893 18.51662 9.33339 -4.43128 80.68528 0.68296 73.97318 -2.84693 26.11764 101.40980 16.97939 11.50588 9.86504 11.41708 1.70564 -13.93778 -24.12244 -1.10721 63.55786 3.39267 0.00680 -0.00624 9.01479 -17.12859 -60.98832 -33.77334 6.03258 13.34246 47.36488 16.23646 -36.49675 -27.82441 0.02013 0.00187 8.36501 -27.57706 7.50715 
48.60762 94.02147 -31.27436 6.67404 11.72493 153.71619 -9.73178 27.06024 5.27237 0.00153 0.00673 -0.00999 -8.24769 23.28697 8.39812 0.28078 9.60961 -3.35255 -141.66321 -63.42070 -118.37884 -19.92595 61.38789 -95.01495 16.06486 7.87377 -6.20315 18.71687 9.32061 -4.56358 81.32809 0.17642 74.28952 -3.43214 26.34633 102.36560 16.95071 11.43585 9.61010 11.79536 1.65347 -10.88560 -24.20857 0.27163 60.72530 1.01292 0.00473 -0.00382 11.23642 -17.32078 -61.22773 -33.43283 4.34942 13.80799 47.95615 17.24602 -37.22490 -27.46274 0.01525 0.00123 7.92287 -27.25987 7.58431 
48.25785 94.26682 -31.36765 7.03201 11.39333 153.86969 -9.28380 26.96872 5.35204 0.00164 0.00676 -0.00840 -7.44521 22.53524 8.29621 0.51939 9.60040 -3.25983 -141.19293 -62.65130 -118.05946 -19.34521 61.44557 -95.58912 16.19798 8.06084 -5.89857 18.83959 9.32535 -4.52656 81.94207 -0.33111 74.67152 -4.01988 26.51686 103.25644 16.90736 11.37445 9.37298 12.14959 1.47379 -8.15690 -24.08975 1.62277 58.09784 -1.43723 0.00252 -0.00153 13.49494 -17.35093 -61.36464 -33.04644 2.92196 14.26828 48.35317 18.13779 -37.83465 -27.32043 0.01680 0.00330 7.88575 -26.91842 7.77395 
47.95048 94.50910 -31.40007 7.36631 11.04528 154.06296 -8.78945 26.86461 5.31107 0.00165 0.00681 -0.00689 -6.83313 21.86673 8.30914 0.69487 9.56352 -3.05522 -140.76242 -61.83755 -117.73874 -18.72526 61.52055 -96.20322 16.33698 8.19522 -5.58819 18.88782 9.34004 -4.35370 82.52901 -0.83236 75.11103 -4.61233 26.63670 104.07455 16.87360 11.31898 9.15238 12.46683 1.19676 -5.76286 -23.78876 2.90006 55.66995 -3.93918 0.00028 0.00045 15.77835 -17.24397 -61.41010 -32.62040 1.75277 14.72490 48.59856 18.91215 -38.30890 -26.91199 0.01530 0.00384 7.70391 -26.50993 8.06386 
47.69173 94.74043 -31.38215 7.66973 10.69347 154.30322 -8.25894 26.75105 5.16444 0.00152 0.00684 -0.00554 -6.39191 21.28808 8.40909 0.80708 9.50095 -2.76614 -140.36583 -60.99670 -117.40469 -18.08739 61.61416 -96.83266 16.48469 8.29884 -5.25652 18.86261 9.35689 -4.07459 83.09155 -1.31833 75.59192 -5.21188 26.71432 104.81561 16.83718 11.25865 8.95707 12.73865 0.85268 -3.70892 -23.33323 4.07251 53.43678 -6.47783 -0.00188 0.00202 18.06932 -17.01859 -61.37782 -32.16349 0.83484 15.18039 48.72361 19.55696 -38.63942 -26.53694 0.01551 0.00488 7.61918 -26.02923 8.37291 
47.49440 94.94768 -31.32929 7.93706 10.35448 154.59781 -7.70588 26.63270 4.92473 0.00125 0.00682 -0.00446 -6.10249 20.80500 8.57335 0.85715 9.41757 -2.42168 -140.00459 -60.15211 -117.05597 -17.44733 61.72219 -97.46098 16.63079 8.37730 -4.92898 18.75970 9.37250 -3.71451 83.63663 -1.77877 76.09454 -5.82038 26.75743 105.47900 16.81550 11.19301 8.78441 12.96136 0.47458 -1.99806 -22.75431 5.12167 51.39330 -9.04131 -0.00388 0.00318 20.34789 -16.68567 -61.28168 -31.68726 0.07313 15.63560 50.10874 21.59332 -38.71209 -29.35993 0.14962 0.04976 10.10675 -27.23873 7.26433 
47.36538 95.12109 -31.25144 8.16394 10.04068 154.94649 -7.14761 26.50928 4.60866 0.00084 0.00678 -0.00371 -5.94606 20.42143 8.78466 0.84828 9.32313 -2.05105 -139.67911 -59.32579 -116.69662 -16.80284 61.83118 -98.08768 16.76402 8.45698 -4.60020 18.57404 9.38882 -3.29953 84.17197 -2.19924 76.60187 -6.43780 26.77138 106.06760 16.79327 11.11955 8.63916 13.13623 0.08885 -0.62170 -22.08400 6.04020 49.53560 -11.61877 -0.00569 0.00395 22.59473 -16.26152 -61.13446 -31.20549 -0.52320 16.09345 50.73867 22.62414 -38.75163 -27.00686 -0.01562 0.00143 7.73558 -27.20307 6.84332 
47.30250 95.25278 -31.14943 8.34596 9.76042 155.34224 -6.60595 26.37878 4.23703 0.00026 0.00678 -0.00325 -5.90359 20.13782 9.03031 0.77560 9.22931 -1.68062 -139.38446 -58.53498 -116.33593 -16.13486 61.92867 -98.72717 16.87841 8.53425 -4.27853 18.30437 9.40938 -2.86057 84.70280 -2.56074 77.10095 -7.06246 26.76230 106.58738 16.78200 11.04653 8.51327 13.26564 -0.29053 0.43830 -21.35374 6.83113 47.86446 -14.19739 -0.00724 0.00437 24.79435 -15.77312 -60.94820 -30.73183 -0.93224 16.55548 50.88231 23.02603 -38.71773 -27.21086 0.01347 -0.00004 8.11529 -26.95297 6.77980 
